<?xml version="1.0" ?>
<svg enable-background="new 0 0 64 64" version="1.1" viewBox="0 0 64 64" xml:space="preserve" xmlns="http://www.w3.org/2000/svg" xmlns:xlink="http://www.w3.org/1999/xlink">
    <g id="Glyph">
        <polygon points="32,-0.042 2.027,21.396 2.027,26.273 32,4.835 61.973,26.273 61.973,21.396  "/>
        <path d="M32,7.933L6.823,25.904v38.055h50.355V25.904L32,7.933z M21.121,54.676h-2.964V37.367l2.964-1.466V54.676z M26.061,54.676   h-2.964V34.582l2.964-1.572V54.676z M28.038,54.676V31.798l2.942,2.1l0.022,20.778H28.038z M35.943,54.676h-2.964V35.076   l2.964,1.976V54.676z M40.884,54.632h-2.981l-0.017-17.753l2.998-1.623V54.632z M45.825,54.705H42.86V33.864l2.964-1.826V54.705z    M46.518,30.573l-0.57-0.811l-9.054,5.684l-8.685-5.791l-10.143,5.827l-0.019-1.97l10.243-5.796l8.507,5.671l8.2-4.98l-0.562-0.801   l3.612-0.32L46.518,30.573z"/>
    </g>
</svg>