<?xml version="1.0"?>
<svg version="1.1" xmlns="http://www.w3.org/2000/svg" width="200" height="50">
    <g id="Glyph">
        <polygon points="32,-0.042 2.027,21.396 2.027,26.273 32,4.835 61.973,26.273 61.973,21.396  "/>
        <path d="M32,7.933L6.823,25.904v38.055h50.355V25.904L32,7.933z M21.121,54.676h-2.964V37.367l2.964-1.466V54.676z M26.061,54.676   h-2.964V34.582l2.964-1.572V54.676z M28.038,54.676V31.798l2.942,2.1l0.022,20.778H28.038z M35.943,54.676h-2.964V35.076   l2.964,1.976V54.676z M40.884,54.632h-2.981l-0.017-17.753l2.998-1.623V54.632z M45.825,54.705H42.86V33.864l2.964-1.826V54.705z    M46.518,30.573l-0.57-0.811l-9.054,5.684l-8.685-5.791l-10.143,5.827l-0.019-1.97l10.243-5.796l8.507,5.671l8.2-4.98l-0.562-0.801   l3.612-0.32L46.518,30.573z"/>
        <path id="shapePath1" d="M23.5195,22.71 L15.2295,22.71 L15.2295,22.1641 C16.7699,22.1133 17.54,21.7493 17.54,21.0723 C17.54,20.8861 17.5062,20.7126 17.4385,20.5518 L16.2197,17.6191 L10.2656,17.6191 L9.35156,19.9551 C9.23307,20.2598 9.17383,20.556 9.17383,20.8438 C9.17383,21.6732 9.85091,22.1133 11.2051,22.1641 L11.2051,22.71 L6,22.71 L6,22.1641 C6.83789,22.1387 7.48112,21.5843 7.92969,20.501 L14.29,5 L15.1025,5 L21.7041,20.9961 C22.0257,21.7747 22.597,22.1641 23.418,22.1641 L23.5195,22.1641 L23.5195,22.71 M15.8008,16.6035 L13.1475,10.1797 L10.6592,16.6035 L15.8008,16.6035 M41.5615,22.71 L33.1699,22.71 L33.1699,22.1641 C34.5833,22.1133 35.29,21.377 35.29,19.9551 L35.29,7.86914 C35.29,7.24284 35.2393,6.82812 35.1377,6.625 C34.9769,6.30339 34.6299,6.14258 34.0967,6.14258 L32.3828,6.14258 C31.748,6.14258 31.3841,6.56999 31.291,7.4248 C31.2064,8.17806 31.1641,10.6198 31.1641,14.75 C31.1641,18.7786 30.6436,21.3473 29.6025,22.4561 C29.154,22.9385 28.4346,23.1797 27.4443,23.1797 C26.6149,23.1797 25.9357,22.9321 25.4067,22.437 C24.8778,21.9419 24.6133,21.2796 24.6133,20.4502 C24.6133,19.8662 24.7572,19.388 25.0449,19.0156 C25.3665,18.6009 25.8109,18.3936 26.3779,18.3936 C26.818,18.3936 27.2052,18.5332 27.5396,18.8125 C27.8739,19.0918 28.041,19.4473 28.041,19.8789 C28.041,20.0736 27.967,20.3465 27.8188,20.6978 C27.6707,21.049 27.5967,21.2796 27.5967,21.3896 C27.5967,21.7874 27.7871,21.9863 28.168,21.9863 C29.0651,21.9863 29.6406,20.3359 29.8945,17.0352 C29.9792,15.918 30.0215,13.9629 30.0215,11.1699 L30.0215,7.65332 C30.0215,6.82389 29.8057,6.2653 29.374,5.97754 C29.0778,5.78288 28.46,5.64746 27.5205,5.57129 L27.5205,5 L41.5615,5 L41.5615,5.5459 C40.1396,5.63053 39.4287,6.36686 39.4287,7.75488 L39.4287,19.9551 C39.4287,21.377 40.1396,22.1133 41.5615,22.1641 L41.5615,22.71 M57.8359,17.6953 C57.8359,19.4896 57.1589,20.8099 55.8047,21.6562 C54.679,22.3587 53.1641,22.71 51.2598,22.71 L42.8555,22.71 L42.8555,22.1641 C44.2773,22.1133 44.9883,21.377 44.9883,19.9551 L44.9883,7.75488 C44.9883,6.36686 44.2773,5.63053 42.8555,5.5459 L42.8555,5 L51.2598,5 L51.2598,5.5459 C49.8379,5.63053 49.127,6.36686 49.127,7.75488 L49.127,12.9092 L50.8916,12.9092 C52.7705,12.9092 54.3151,13.235 55.5254,13.8867 C57.0658,14.7077 57.8359,15.9772 57.8359,17.6953 M53.7227,17.8477 C53.7227,16.6543 53.4603,15.7064 52.9355,15.0039 C52.3431,14.2168 51.4714,13.8232 50.3203,13.8232 L49.127,13.8232 L49.127,20.0059 C49.127,20.7422 49.1608,21.1865 49.2285,21.3389 C49.3639,21.6436 49.7279,21.7959 50.3203,21.7959 C52.5885,21.7959 53.7227,20.4798 53.7227,17.8477 M74.8584,10.2559 L74.2871,10.2559 C74.2786,10.1966 74.2617,10.0824 74.2363,9.91309 C74.0671,8.66895 73.6058,7.68717 72.8525,6.96777 C72.0654,6.21452 71.054,5.83789 69.8184,5.83789 L69.1455,5.83789 L69.1455,19.9551 C69.1455,21.377 69.8564,22.1133 71.2783,22.1641 L71.2783,22.71 L62.874,22.71 L62.874,22.1641 C64.2959,22.1133 65.0068,21.377 65.0068,19.9551 L65.0068,5.83789 L64.334,5.83789 C63.0983,5.83789 62.0869,6.21452 61.2998,6.96777 C60.5466,7.68717 60.0853,8.66895 59.916,9.91309 C59.8991,10.0062 59.8779,10.1204 59.8525,10.2559 L59.2812,10.2559 L59.2812,5 L74.8584,5 L74.8584,10.2559 M95.8047,22.71 L87.4004,22.71 L87.4004,22.1641 C88.8223,22.1133 89.5332,21.377 89.5332,19.9551 L89.5332,9.29102 L82.8936,20.6279 C83.1051,21.6097 83.7949,22.1217 84.9629,22.1641 L84.9629,22.71 L76.5586,22.71 L76.5586,22.1641 C77.9805,22.1133 78.6914,21.377 78.6914,19.9551 L78.6914,7.75488 C78.6914,6.36686 77.9805,5.63053 76.5586,5.5459 L76.5586,5 L84.9629,5 L84.9629,5.5459 C83.541,5.63053 82.8301,6.36686 82.8301,7.75488 L82.8301,18.5459 L89.4824,7.14551 C89.2878,6.14681 88.5938,5.61361 87.4004,5.5459 L87.4004,5 L95.8047,5 L95.8047,5.5459 C94.3828,5.63053 93.6719,6.36686 93.6719,7.75488 L93.6719,19.9551 C93.6719,21.377 94.3828,22.1133 95.8047,22.1641 L95.8047,22.71 M116.314,22.71 L107.491,22.71 L107.491,22.1641 C108.778,22.1133 109.421,21.834 109.421,21.3262 C109.421,21.1823 109.379,21.0553 109.294,20.9453 L104.241,14.3945 L103.543,15.1182 L103.543,19.9551 C103.543,21.377 104.254,22.1133 105.676,22.1641 L105.676,22.71 L97.2715,22.71 L97.2715,22.1641 C98.6934,22.1133 99.4043,21.377 99.4043,19.9551 L99.4043,7.75488 C99.4043,6.36686 98.6934,5.63053 97.2715,5.5459 L97.2715,5 L105.676,5 L105.676,5.5459 C104.254,5.63053 103.543,6.36686 103.543,7.75488 L103.543,13.6074 L109.573,7.50098 C109.853,7.22168 109.992,6.94238 109.992,6.66309 C109.992,5.97754 109.332,5.60514 108.012,5.5459 L108.012,5 L115.502,5 L115.502,5.5459 C114.596,5.5459 113.868,5.66016 113.318,5.88867 C112.489,6.23568 111.537,6.95508 110.462,8.04688 L107.047,11.5254 L114.385,20.7295 C114.808,21.2627 115.079,21.5801 115.197,21.6816 C115.544,21.9863 115.917,22.1471 116.314,22.1641 L116.314,22.71 M134.832,22.71 L126.542,22.71 L126.542,22.1641 C128.082,22.1133 128.853,21.7493 128.853,21.0723 C128.853,20.8861 128.819,20.7126 128.751,20.5518 L127.532,17.6191 L121.578,17.6191 L120.664,19.9551 C120.546,20.2598 120.486,20.556 120.486,20.8438 C120.486,21.6732 121.163,22.1133 122.518,22.1641 L122.518,22.71 L117.312,22.71 L117.312,22.1641 C118.15,22.1387 118.794,21.5843 119.242,20.501 L125.603,5 L126.415,5 L133.017,20.9961 C133.338,21.7747 133.91,22.1641 134.73,22.1641 L134.832,22.1641 L134.832,22.71 M127.113,16.6035 L124.46,10.1797 L121.972,16.6035 L127.113,16.6035 Z" style="stroke:none;fill-rule:nonzero;fill:#256ea4;fill-opacity:1;"/>
        <path id="shapePath2" d="M54.6409,34.0986 C54.9627,33.3825 55.2047,32.6989 55.3671,32.0479 C55.518,31.4424 55.5807,30.8971 55.5552,30.4121 C55.5296,29.9271 55.4187,29.5169 55.2223,29.1816 C55.0259,28.8464 54.7515,28.5892 54.399,28.4102 C54.0465,28.2311 53.6196,28.1416 53.1183,28.1416 C52.7472,28.1416 52.3782,28.1921 52.0113,28.293 C51.6443,28.3939 51.29,28.5355 50.9483,28.7178 C50.6066,28.9001 50.2833,29.1198 49.9783,29.377 C49.6733,29.6341 49.3947,29.9157 49.1427,30.2217 L48.9859,29.4404 C49.3991,29.0889 49.8066,28.8057 50.2085,28.5908 C50.6104,28.376 50.9988,28.2083 51.3739,28.0879 C51.749,27.9674 52.1046,27.8861 52.4406,27.8438 C52.7767,27.8014 53.088,27.7803 53.3744,27.7803 C54.1036,27.7803 54.703,27.8958 55.1728,28.127 C55.6425,28.3581 55.9967,28.6803 56.2354,29.0938 C56.4741,29.5072 56.6018,30.0003 56.6185,30.5732 C56.6352,31.1462 56.5583,31.7744 56.3878,32.458 C56.1979,33.2197 55.9351,33.9603 55.5995,34.6797 C55.2639,35.3991 54.8709,36.0745 54.4205,36.7061 C53.9701,37.3376 53.4691,37.917 52.9177,38.4443 C52.3663,38.9717 51.7783,39.4242 51.1535,39.8018 C50.5288,40.1794 49.8763,40.4723 49.1961,40.6807 C48.5159,40.889 47.8242,40.9932 47.1211,40.9932 C46.8346,40.9932 46.5498,40.9671 46.2666,40.915 C45.9833,40.863 45.7143,40.7865 45.4595,40.6855 C45.2047,40.5846 44.9727,40.4577 44.7635,40.3047 C44.5542,40.1517 44.3812,39.971 44.2443,39.7627 L45.0347,38.7861 C45.1571,39.3916 45.4223,39.8555 45.8303,40.1777 C46.2382,40.5 46.7677,40.6611 47.4187,40.6611 C47.92,40.6611 48.4144,40.5781 48.9017,40.4121 C49.3891,40.2461 49.8613,40.0166 50.3185,39.7236 C50.7757,39.4307 51.21,39.0856 51.6215,38.6885 C52.033,38.2913 52.4165,37.8633 52.7718,37.4043 C53.1271,36.9453 53.4482,36.4668 53.7352,35.9688 C54.0221,35.4707 54.2663,34.9743 54.4678,34.4795 L49.3241,34.9385 L49.7556,34.0693 L54.6409,34.0986 M56.8635,35.5244 L57.8911,35.124 L56.1382,38.7471 C56.374,38.4541 56.6159,38.1693 56.8639,37.8926 C57.1119,37.6159 57.3591,37.3555 57.6056,37.1113 C57.852,36.8672 58.0903,36.6426 58.3204,36.4375 C58.5506,36.2324 58.7657,36.055 58.9658,35.9053 C59.1497,35.7686 59.3136,35.653 59.4575,35.5586 C59.6015,35.4642 59.7447,35.3861 59.8871,35.3242 C60.0294,35.2624 60.1775,35.2168 60.3313,35.1875 C60.4851,35.1582 60.6645,35.137 60.8696,35.124 L60.4576,36.0322 C60.3209,35.9801 60.2012,35.9508 60.0987,35.9443 C59.9961,35.9378 59.9058,35.9346 59.8277,35.9346 C59.704,35.9346 59.5571,35.9688 59.3871,36.0371 C59.217,36.1055 59.0364,36.2031 58.8453,36.3301 C58.6541,36.457 58.4605,36.6068 58.2645,36.7793 C58.0685,36.9518 57.8786,37.1455 57.6948,37.3604 C57.7357,37.6143 57.7807,37.9105 57.8297,38.249 C57.8788,38.5876 57.9384,38.9098 58.0086,39.2158 C58.0788,39.5218 58.1591,39.7806 58.2496,39.9922 C58.3401,40.2038 58.4471,40.3096 58.5708,40.3096 C58.8573,40.3096 59.2388,40.111 59.7155,39.7139 L59.8155,39.626 L59.9059,39.7725 C59.0503,40.5667 58.4728,40.9639 58.1733,40.9639 C58.0692,40.9639 57.9731,40.9443 57.8852,40.9053 C57.7973,40.8662 57.7264,40.7979 57.6727,40.7002 C57.5945,40.57 57.5309,40.4072 57.4819,40.2119 C57.4329,40.0166 57.3864,39.7985 57.3423,39.5576 C57.2982,39.3167 57.2545,39.0612 57.2112,38.791 C57.1679,38.5208 57.1168,38.2425 57.058,37.9561 C56.723,38.3076 56.3904,38.708 56.0603,39.1572 C55.7302,39.6064 55.4335,40.137 55.1703,40.749 L54.5014,40.9248 L56.8635,35.5244 M64.7304,39.3721 C64.1936,39.932 63.706,40.3405 63.2676,40.5977 C62.8291,40.8548 62.382,40.9834 61.9263,40.9834 C61.425,40.9834 61.0603,40.8076 60.8322,40.4561 C60.6041,40.1045 60.5598,39.6488 60.6994,39.0889 C60.8455,38.5029 61.147,37.9072 61.604,37.3018 C62.0609,36.6963 62.5782,36.195 63.1557,35.7979 C63.7332,35.4007 64.2434,35.2021 64.6861,35.2021 C64.9855,35.2021 65.2057,35.2852 65.3466,35.4512 C65.4875,35.6172 65.5231,35.8402 65.4533,36.1201 C65.39,36.374 65.2335,36.6165 64.9838,36.8477 C64.7341,37.0788 64.4986,37.1943 64.2772,37.1943 C64.1796,37.1943 64.1014,37.1553 64.0428,37.0771 C64.513,36.8883 64.8123,36.5368 64.9405,36.0225 C64.986,35.8402 64.9741,35.6986 64.9048,35.5977 C64.8356,35.4967 64.7228,35.4463 64.5666,35.4463 C64.3257,35.4463 64.0589,35.5439 63.766,35.7393 C63.4732,35.9346 63.1759,36.2064 62.8742,36.5547 C62.5725,36.903 62.3124,37.2741 62.0937,37.668 C61.8751,38.0618 61.7154,38.4606 61.6148,38.8643 C61.4947,39.346 61.5112,39.7367 61.6644,40.0361 C61.8176,40.3356 62.0798,40.4854 62.4508,40.4854 C62.7699,40.4854 63.1043,40.3844 63.4541,40.1826 C63.8039,39.9808 64.1935,39.6716 64.6229,39.2549 L64.7304,39.3721 M65.1025,40.9346 L67.4866,35.5244 L68.5141,35.124 L66.7807,38.708 C67.6051,37.5687 68.3581,36.7028 69.0397,36.1104 C69.7213,35.5179 70.3062,35.2217 70.7945,35.2217 C71.0354,35.2217 71.2108,35.3014 71.3208,35.4609 C71.4307,35.6204 71.4524,35.8337 71.3859,36.1006 C71.3485,36.2503 71.26,36.4619 71.1202,36.7354 L70.9203,37.1455 L70.3303,38.3369 L70.1376,38.7178 C69.9426,39.1084 69.8191,39.4079 69.7672,39.6162 C69.7152,39.8245 69.7092,39.9922 69.7492,40.1191 C69.7891,40.2461 69.8677,40.3096 69.9849,40.3096 C70.1867,40.3096 70.5691,40.0687 71.1319,39.5869 L71.254,39.7236 L71.1296,39.8311 C70.6497,40.2673 70.3029,40.5618 70.0889,40.7148 C69.875,40.8678 69.6932,40.9443 69.5434,40.9443 C69.3416,40.9443 69.1963,40.8418 69.1074,40.6367 C69.0186,40.4316 69.0123,40.1761 69.0886,39.8701 C69.1406,39.6618 69.2567,39.3525 69.4371,38.9424 L70.3342,36.8721 C70.4674,36.5466 70.5503,36.3187 70.5827,36.1885 C70.6168,36.0518 70.607,35.9476 70.5532,35.876 C70.4995,35.8044 70.4107,35.7686 70.287,35.7686 C69.8378,35.7686 69.1643,36.2503 68.2665,37.2139 C67.8323,37.6761 67.4546,38.1335 67.1334,38.5859 C66.8123,39.0384 66.4216,39.665 65.9616,40.4658 L65.8079,40.7295 L65.1025,40.9346 M75.8851,39.3232 L76.0244,39.4697 C75.4876,40.0036 74.9976,40.3893 74.5542,40.627 C74.1108,40.8646 73.6678,40.9834 73.2251,40.9834 C72.6978,40.9834 72.3184,40.8076 72.0871,40.4561 C71.8557,40.1045 71.8123,39.639 71.9567,39.0596 C72.1028,38.4736 72.4056,37.8796 72.8649,37.2773 C73.3243,36.6751 73.8359,36.1771 74.3996,35.7832 C74.9633,35.3893 75.473,35.1924 75.9287,35.1924 C76.1957,35.1924 76.3959,35.2705 76.5295,35.4268 C76.663,35.583 76.699,35.7848 76.6373,36.0322 C76.5123,36.5335 76.1139,37.0348 75.442,37.5361 C74.7702,38.0374 73.9184,38.4639 72.8867,38.8154 C72.8672,38.8675 72.8494,38.9261 72.8331,38.9912 C72.7211,39.4404 72.7535,39.8066 72.9303,40.0898 C73.1071,40.373 73.3908,40.5146 73.7814,40.5146 C74.0874,40.5146 74.4076,40.4186 74.7419,40.2266 C75.0763,40.0345 75.4573,39.7334 75.8851,39.3232 M72.9452,38.5811 C73.7262,38.2686 74.3534,37.9202 74.8268,37.5361 C75.1456,37.2757 75.4205,36.9958 75.6514,36.6963 C75.8823,36.3968 76.0278,36.1266 76.0879,35.8857 C76.1642,35.5798 76.0624,35.4268 75.7824,35.4268 C75.3592,35.4268 74.848,35.7604 74.2487,36.4277 C73.6493,37.0951 73.2148,37.8128 72.9452,38.5811 M74.7169,44.7139 L78.8538,35.5244 L79.8911,35.124 L78.5478,37.9268 C79.2714,36.9567 79.8996,36.2585 80.4323,35.832 C80.9651,35.4056 81.4854,35.1924 81.9932,35.1924 C82.3838,35.1924 82.6573,35.3356 82.8138,35.6221 C82.9702,35.9085 82.986,36.3024 82.861,36.8037 C82.7344,37.3115 82.502,37.8324 82.1638,38.3662 C81.8256,38.9001 81.4166,39.3851 80.9367,39.8213 C80.0649,40.6286 79.2253,41.0322 78.418,41.0322 C77.9102,41.0322 77.5268,40.8988 77.2678,40.6318 L75.2442,44.7139 L74.7169,44.7139 M77.575,39.9873 C77.7154,40.5212 78.0329,40.7881 78.5277,40.7881 C79.2439,40.7881 80.0141,40.2054 80.8385,39.04 C81.5085,38.1025 81.923,37.3148 82.0821,36.6768 C82.1681,36.3317 82.1696,36.0648 82.0864,35.876 C82.0033,35.6872 81.8413,35.5928 81.6004,35.5928 C81.2098,35.5928 80.7355,35.8499 80.1776,36.3643 C79.6408,36.8721 79.1513,37.4385 78.709,38.0635 C78.5366,38.3109 78.3683,38.5745 78.2041,38.8545 C78.0399,39.1344 77.879,39.4209 77.7213,39.7139 L77.575,39.9873 M86.6165,40.7295 L85.9209,40.9346 L87.6833,36.96 C87.6833,36.96 87.7345,36.846 87.8369,36.6182 C87.923,36.4294 87.9815,36.2731 88.0124,36.1494 C88.0838,35.863 88.0056,35.7197 87.7777,35.7197 C87.5629,35.7197 87.2663,35.8646 86.8881,36.1543 C86.5099,36.444 86.0833,36.8623 85.6084,37.4092 C85.2994,37.7607 85.0246,38.0993 84.7839,38.4248 C84.5433,38.7503 84.3103,39.097 84.0852,39.4648 C83.86,39.8327 83.6263,40.2542 83.3841,40.7295 L82.7275,40.9346 L85.0823,35.5244 L86.1196,35.124 L84.3861,38.6689 C85.0739,37.6598 85.7802,36.8314 86.5048,36.1836 C87.2295,35.5358 87.8164,35.2119 88.2657,35.2119 C88.7539,35.2119 88.9291,35.4886 88.7911,36.042 C88.744,36.2308 88.6116,36.5661 88.3938,37.0479 L87.7088,38.5029 C88.6422,37.292 89.3891,36.4375 89.9495,35.9395 C90.5099,35.4414 91.0049,35.1924 91.4346,35.1924 C91.6755,35.1924 91.8464,35.264 91.9474,35.4072 C92.0484,35.5505 92.0657,35.7555 91.9991,36.0225 C91.9455,36.2373 91.7879,36.6084 91.5262,37.1357 L90.924,38.3369 L90.7314,38.7178 C90.5396,39.1214 90.4194,39.4209 90.3707,39.6162 C90.3187,39.8245 90.3127,39.9922 90.3527,40.1191 C90.3927,40.2461 90.468,40.3096 90.5787,40.3096 C90.787,40.3096 91.1726,40.0687 91.7354,39.5869 L91.8478,39.7236 L91.7331,39.8311 C91.2533,40.2673 90.9048,40.5618 90.6876,40.7148 C90.4704,40.8678 90.2869,40.9443 90.1372,40.9443 C89.9354,40.9443 89.79,40.8418 89.7012,40.6367 C89.6124,40.4316 89.6061,40.1761 89.6824,39.8701 C89.7294,39.6813 89.8489,39.3721 90.0406,38.9424 L90.906,36.9209 L91.0522,36.5693 C91.14,36.374 91.1985,36.2178 91.2277,36.1006 C91.2569,35.9834 91.2446,35.889 91.1909,35.8174 C91.1371,35.7458 91.0484,35.71 90.9247,35.71 C90.7815,35.71 90.6086,35.7702 90.406,35.8906 C90.2035,36.0111 89.9737,36.195 89.7167,36.4424 C89.4597,36.6898 89.1604,37.0153 88.8189,37.4189 C88.3554,37.9723 87.9631,38.4883 87.642,38.9668 C87.3208,39.4453 86.979,40.0329 86.6165,40.7295 M99.6548,35.124 L97.9943,38.3369 C97.7196,38.8643 97.5425,39.2874 97.463,39.6064 C97.411,39.8148 97.4046,39.9841 97.4438,40.1143 C97.4829,40.2445 97.5611,40.3096 97.6783,40.3096 C97.8801,40.3096 98.2624,40.0687 98.8252,39.5869 L98.9474,39.7236 L98.823,39.8311 C98.3431,40.2673 97.9962,40.5618 97.7823,40.7148 C97.5684,40.8678 97.3865,40.9443 97.2368,40.9443 C97.035,40.9443 96.8896,40.8418 96.8008,40.6367 C96.712,40.4316 96.7057,40.1761 96.782,39.8701 C96.8307,39.6748 96.9468,39.3656 97.1305,38.9424 L98.5979,35.5244 L99.6548,35.124 M96.1624,37.0283 C96.3121,37.0283 96.4423,37.0413 96.553,37.0674 C96.6637,37.0934 96.7525,37.1423 96.8193,37.2139 C96.886,37.2855 96.9248,37.3848 96.9354,37.5117 C96.9461,37.6387 96.9271,37.7998 96.8784,37.9951 C96.7972,38.3206 96.6302,38.6576 96.3773,39.0059 C96.1245,39.3542 95.8321,39.6716 95.5003,39.958 C95.1685,40.2445 94.8183,40.4805 94.4497,40.666 C94.0812,40.8516 93.744,40.9443 93.438,40.9443 C93.1059,40.9443 92.8646,40.8483 92.7139,40.6562 C92.5632,40.4642 92.5276,40.2087 92.6072,39.8896 C92.664,39.6618 92.7753,39.3591 92.941,38.9814 L94.467,35.5244 L95.4848,35.124 L93.7537,38.542 C94.2368,38.0146 94.6841,37.6305 95.0957,37.3896 C95.5074,37.1488 95.8629,37.0283 96.1624,37.0283 M93.2834,39.7627 C93.2266,39.9906 93.2503,40.1826 93.3546,40.3389 C93.4588,40.4951 93.6412,40.5732 93.9016,40.5732 C94.0709,40.5732 94.2596,40.5212 94.4679,40.417 C94.6761,40.3128 94.8815,40.1615 95.084,39.9629 C95.2865,39.7643 95.4752,39.5169 95.6499,39.2207 C95.8247,38.9245 95.96,38.5843 96.0558,38.2002 C96.1142,37.9658 96.1259,37.7819 96.0908,37.6484 C96.0557,37.515 95.9438,37.4482 95.755,37.4482 C95.6247,37.4482 95.475,37.4808 95.3058,37.5459 C95.1366,37.611 94.9548,37.7135 94.7604,37.8535 C94.5659,37.9935 94.3622,38.1709 94.1491,38.3857 C93.9361,38.6006 93.7206,38.8577 93.5027,39.1572 C93.4019,39.3786 93.3288,39.5804 93.2834,39.7627 M101.014,44.7139 L105.151,35.5244 L106.188,35.124 L104.845,37.9268 C105.568,36.9567 106.196,36.2585 106.729,35.832 C107.262,35.4056 107.782,35.1924 108.29,35.1924 C108.681,35.1924 108.954,35.3356 109.111,35.6221 C109.267,35.9085 109.283,36.3024 109.158,36.8037 C109.031,37.3115 108.799,37.8324 108.461,38.3662 C108.122,38.9001 107.713,39.3851 107.234,39.8213 C106.362,40.6286 105.522,41.0322 104.715,41.0322 C104.207,41.0322 103.824,40.8988 103.565,40.6318 L101.541,44.7139 L101.014,44.7139 M103.872,39.9873 C104.012,40.5212 104.33,40.7881 104.825,40.7881 C105.541,40.7881 106.311,40.2054 107.135,39.04 C107.805,38.1025 108.22,37.3148 108.379,36.6768 C108.465,36.3317 108.466,36.0648 108.383,35.876 C108.3,35.6872 108.138,35.5928 107.897,35.5928 C107.507,35.5928 107.032,35.8499 106.474,36.3643 C105.938,36.8721 105.448,37.4385 105.006,38.0635 C104.833,38.3109 104.665,38.5745 104.501,38.8545 C104.337,39.1344 104.176,39.4209 104.018,39.7139 L103.872,39.9873 M115.149,35.29 C114.955,35.6481 114.748,36.029 114.527,36.4326 C114.306,36.8363 114.074,37.2757 113.832,37.751 C113.346,38.708 113.067,39.3298 112.996,39.6162 C112.944,39.8245 112.938,39.9922 112.978,40.1191 C113.018,40.2461 113.096,40.3096 113.213,40.3096 C113.415,40.3096 113.798,40.0687 114.36,39.5869 L114.483,39.7236 L114.358,39.8311 C114.114,40.0524 113.907,40.2363 113.737,40.3828 C113.567,40.5293 113.427,40.6416 113.316,40.7197 C113.097,40.8695 112.915,40.9443 112.772,40.9443 C112.57,40.9443 112.424,40.8434 112.335,40.6416 C112.245,40.4398 112.239,40.1826 112.317,39.8701 C112.369,39.6618 112.485,39.3525 112.666,38.9424 L112.897,38.4443 C112.77,38.5094 112.63,38.555 112.477,38.5811 C112.324,38.6071 112.181,38.6266 112.048,38.6396 C111.994,38.6722 111.909,38.752 111.793,38.8789 C111.676,39.0059 111.535,39.1556 111.368,39.3281 C111.202,39.5007 111.02,39.6813 110.823,39.8701 C110.626,40.0589 110.423,40.2331 110.214,40.3926 C110.005,40.5521 109.798,40.6839 109.593,40.7881 C109.388,40.8923 109.194,40.9443 109.012,40.9443 C108.934,40.9443 108.868,40.9411 108.814,40.9346 C108.761,40.9281 108.71,40.915 108.663,40.8955 L109.095,40.1045 C109.161,40.124 109.239,40.1387 109.328,40.1484 C109.417,40.1582 109.506,40.1631 109.598,40.1631 C109.786,40.1631 109.977,40.1175 110.169,40.0264 C110.361,39.9352 110.543,39.8164 110.717,39.6699 C110.89,39.5234 111.049,39.3558 111.194,39.167 C111.338,38.9782 111.459,38.7829 111.555,38.5811 C111.358,38.5355 111.202,38.4655 111.089,38.3711 C110.976,38.2767 110.891,38.1693 110.833,38.0488 C110.775,37.9284 110.745,37.8014 110.742,37.668 C110.74,37.5345 110.754,37.4059 110.785,37.2822 C110.876,36.9176 111.021,36.6133 111.222,36.3691 C111.423,36.125 111.655,35.9264 111.918,35.7734 C112.18,35.6204 112.462,35.5098 112.762,35.4414 C113.062,35.373 113.357,35.3356 113.645,35.3291 L115.149,35.29 M114.158,35.6221 L113.718,35.6221 C113.432,35.6221 113.165,35.6676 112.917,35.7588 C112.67,35.8499 112.452,35.972 112.265,36.125 C112.077,36.278 111.919,36.4538 111.791,36.6523 C111.664,36.8509 111.573,37.0576 111.519,37.2725 C111.484,37.4157 111.468,37.5524 111.471,37.6826 C111.474,37.8128 111.504,37.9284 111.56,38.0293 C111.617,38.1302 111.701,38.21 111.813,38.2686 C111.925,38.3271 112.076,38.3564 112.265,38.3564 C112.349,38.3564 112.465,38.3499 112.612,38.3369 C112.758,38.3239 112.883,38.2913 112.987,38.2393 L114.158,35.6221 M116.164,40.9932 C115.773,40.9932 115.498,40.8516 115.337,40.5684 C115.177,40.2852 115.153,39.9189 115.265,39.4697 C115.396,38.9424 115.606,38.4281 115.893,37.9268 C116.181,37.4255 116.517,36.9795 116.901,36.5889 C117.285,36.1982 117.698,35.8841 118.142,35.6465 C118.585,35.4089 119.028,35.29 119.471,35.29 C119.966,35.29 120.316,35.4268 120.521,35.7002 C120.568,35.5895 120.619,35.4512 120.673,35.2852 C120.728,35.1191 120.782,34.9482 120.835,34.7725 C120.889,34.5967 120.938,34.4274 120.981,34.2646 C121.025,34.1019 121.06,33.9684 121.086,33.8643 C121.123,33.7145 121.161,33.529 121.2,33.3076 C121.239,33.0863 121.263,32.8535 121.272,32.6094 C121.281,32.3652 121.268,32.1227 121.234,31.8818 C121.199,31.641 121.13,31.4245 121.024,31.2324 C120.919,31.0404 120.77,30.8841 120.575,30.7637 C120.38,30.6432 120.127,30.583 119.814,30.583 C119.743,30.583 119.645,30.5911 119.52,30.6074 C119.396,30.6237 119.256,30.6546 119.101,30.7002 C118.947,30.7458 118.78,30.8092 118.6,30.8906 C118.42,30.972 118.237,31.0745 118.05,31.1982 L117.979,31.0127 C118.164,30.8695 118.364,30.7458 118.579,30.6416 C118.794,30.5374 119.007,30.4512 119.22,30.3828 C119.432,30.3145 119.631,30.2656 119.818,30.2363 C120.004,30.207 120.159,30.1924 120.283,30.1924 C120.797,30.1924 121.191,30.2917 121.463,30.4902 C121.736,30.6888 121.921,30.9525 122.018,31.2812 C122.115,31.61 122.142,31.9844 122.099,32.4043 C122.057,32.8242 121.98,33.2555 121.87,33.6982 C121.722,34.2907 121.523,34.8815 121.271,35.4707 C121.02,36.0599 120.736,36.6247 120.419,37.165 C120.102,37.7054 119.762,38.21 119.397,38.6787 C119.033,39.1475 118.664,39.5527 118.289,39.8945 C117.914,40.2363 117.544,40.5049 117.18,40.7002 C116.815,40.8955 116.477,40.9932 116.164,40.9932 M120.209,36.2471 C120.191,36.0322 120.102,35.8646 119.944,35.7441 C119.785,35.6237 119.591,35.5635 119.364,35.5635 C119.123,35.5635 118.887,35.6221 118.656,35.7393 C118.425,35.8564 118.2,36.0143 117.981,36.2129 C117.762,36.4115 117.555,36.6426 117.359,36.9062 C117.163,37.1699 116.984,37.445 116.821,37.7314 C116.658,38.0179 116.517,38.3092 116.398,38.6055 C116.279,38.9017 116.186,39.1833 116.119,39.4502 C116.035,39.7887 116.035,40.0605 116.121,40.2656 C116.206,40.4707 116.396,40.5732 116.689,40.5732 C116.897,40.5732 117.123,40.4967 117.366,40.3438 C117.609,40.1908 117.852,39.9889 118.093,39.7383 C118.335,39.4876 118.571,39.2061 118.802,38.8936 C119.033,38.5811 119.244,38.2637 119.435,37.9414 C119.626,37.6191 119.789,37.3099 119.925,37.0137 C120.061,36.7174 120.155,36.4619 120.209,36.2471 M120.762,38.9619 C120.908,38.376 121.212,37.7917 121.673,37.209 C122.134,36.6263 122.661,36.1527 123.253,35.7881 C123.845,35.4235 124.402,35.2412 124.922,35.2412 C125.469,35.2412 125.865,35.4219 126.111,35.7832 C126.356,36.1445 126.407,36.6117 126.264,37.1846 C126.108,37.8096 125.803,38.415 125.347,39.001 C124.892,39.5869 124.365,40.0671 123.767,40.4414 C123.17,40.8158 122.613,41.0029 122.099,41.0029 C121.546,41.0029 121.146,40.8158 120.901,40.4414 C120.656,40.0671 120.61,39.5739 120.762,38.9619 M125.478,36.8135 C125.575,36.4229 125.559,36.1006 125.431,35.8467 C125.302,35.5928 125.088,35.4658 124.788,35.4658 C124.515,35.4658 124.231,35.5537 123.936,35.7295 C123.642,35.9053 123.348,36.1624 123.056,36.501 C122.724,36.8916 122.417,37.3473 122.134,37.8682 C121.851,38.389 121.659,38.8512 121.558,39.2549 C121.438,39.7367 121.44,40.1077 121.564,40.3682 C121.688,40.6286 121.926,40.7588 122.277,40.7588 C122.844,40.7588 123.44,40.3649 124.066,39.5771 C124.388,39.1735 124.677,38.721 124.932,38.2197 C125.187,37.7184 125.369,37.2497 125.478,36.8135 M133.697,35.4951 L134.832,35.1729 L133.301,38.2197 C133.107,38.6038 132.966,38.9049 132.875,39.123 C132.785,39.3411 132.727,39.5023 132.701,39.6064 C132.649,39.8148 132.643,39.9824 132.683,40.1094 C132.723,40.2363 132.802,40.2998 132.919,40.2998 C133.121,40.2998 133.503,40.0589 134.066,39.5771 L134.188,39.7139 L134.064,39.8213 C133.82,40.0426 133.613,40.2266 133.443,40.373 C133.273,40.5195 133.132,40.6318 133.022,40.71 C132.802,40.8597 132.621,40.9346 132.478,40.9346 C132.276,40.9346 132.13,40.8337 132.04,40.6318 C131.951,40.43 131.945,40.1729 132.023,39.8604 C132.06,39.7106 132.134,39.4974 132.246,39.2207 C132.357,38.944 132.491,38.6299 132.647,38.2783 C132.803,37.9268 132.969,37.5524 133.146,37.1553 C133.324,36.7581 133.497,36.3643 133.666,35.9736 L129.504,40.8369 L129.201,40.8369 L130.101,35.8174 C129.633,36.7028 129.209,37.4629 128.829,38.0977 C128.45,38.7324 128.104,39.2516 127.792,39.6553 C127.479,40.0589 127.198,40.3568 126.949,40.5488 C126.699,40.7409 126.473,40.8369 126.271,40.8369 C126.206,40.8369 126.124,40.8337 126.025,40.8271 C125.926,40.8206 125.842,40.8076 125.776,40.7881 L126.295,39.8018 C126.347,39.8538 126.427,39.8945 126.533,39.9238 C126.64,39.9531 126.745,39.9678 126.849,39.9678 C126.973,39.9678 127.1,39.9222 127.23,39.8311 C127.36,39.7399 127.493,39.6195 127.628,39.4697 C127.763,39.32 127.899,39.1442 128.038,38.9424 C128.176,38.7406 128.308,38.529 128.435,38.3076 C128.734,37.7868 128.961,37.3473 129.115,36.9893 C129.27,36.6312 129.378,36.3284 129.44,36.0811 C129.457,36.0094 129.474,35.9313 129.488,35.8467 C129.503,35.762 129.51,35.6676 129.51,35.5635 L130.958,35.1631 L130.057,39.8311 L133.697,35.4951 Z" style="stroke:none;fill-rule:nonzero;fill:#256ea4;fill-opacity:1;"/>
    </g>
</svg>
